<svg width="32" height="36" viewBox="0 0 32 36" fill="none" xmlns="http://www.w3.org/2000/svg">
<path d="M2.62831 14.3999C2.69536 13.5646 3.07457 12.7852 3.69044 12.2169C4.30631 11.6486 5.11364 11.3331 5.95165 11.3333H26.0483C26.8863 11.3331 27.6937 11.6486 28.3095 12.2169C28.9254 12.7852 29.3046 13.5646 29.3717 14.3999L30.71 31.0666C30.7468 31.5252 30.6882 31.9865 30.538 32.4215C30.3878 32.8564 30.1492 33.2555 29.8372 33.5937C29.5251 33.9318 29.1465 34.2017 28.725 34.3864C28.3036 34.5711 27.8484 34.6665 27.3883 34.6666H4.61165C4.15152 34.6665 3.6964 34.5711 3.27495 34.3864C2.85349 34.2017 2.47483 33.9318 2.16281 33.5937C1.85078 33.2555 1.61215 32.8564 1.46193 32.4215C1.31172 31.9865 1.25317 31.5252 1.28998 31.0666L2.62831 14.3999Z" stroke="white" stroke-width="2" stroke-linecap="round" stroke-linejoin="round"/>
<path d="M22.6666 16.3333V7.99992C22.6666 6.23181 21.9642 4.53612 20.714 3.28587C19.4637 2.03563 17.768 1.33325 15.9999 1.33325C14.2318 1.33325 12.5361 2.03563 11.2859 3.28587C10.0356 4.53612 9.33325 6.23181 9.33325 7.99992V16.3333" stroke="white" stroke-width="2" stroke-linecap="round" stroke-linejoin="round"/>
</svg>
